<svg xmlns="http://www.w3.org/2000/svg" xmlns:xlink="http://www.w3.org/1999/xlink" width="200" zoomAndPan="magnify" viewBox="0 0 150 149.999998" height="200" preserveAspectRatio="xMidYMid meet" version="1.0"><path fill="#d9d9d9" d="M 75 150 C 116.421875 150 150 116.421875 150 75 C 150 33.578125 116.421875 0 75 0 C 33.578125 0 0 33.578125 0 75 C 0 116.421875 33.578125 150 75 150 Z M 40.9375 43.09375 L 75 70.34375 L 109.0625 43.09375 L 110.046875 42.273438 L 39.953125 42.273438 Z M 113.691406 48.703125 L 115 47.613281 L 115 104.089844 C 115 106.097656 113.371094 107.726562 111.363281 107.726562 L 38.636719 107.726562 C 36.628906 107.726562 35 106.097656 35 104.089844 L 35 47.613281 L 36.308594 48.703125 L 36.363281 48.75 L 72.726562 77.839844 C 74.054688 78.902344 75.945312 78.902344 77.273438 77.839844 L 113.636719 48.75 Z M 113.691406 48.703125 " fill-opacity="1" fill-rule="evenodd"/></svg>