<svg xmlns="http://www.w3.org/2000/svg" xmlns:xlink="http://www.w3.org/1999/xlink" width="200" zoomAndPan="magnify" viewBox="0 0 150 149.999998" height="200" preserveAspectRatio="xMidYMid meet" version="1.0"><defs><clipPath id="9c81b01040"><path d="M 22.5 0 L 127.5 0 L 127.5 150 L 22.5 150 Z M 22.5 0 " clip-rule="nonzero"/></clipPath></defs><g clip-path="url(#9c81b01040)"><path fill="#d9d9d9" d="M 75 0 C 46.011719 0 22.5 23.511719 22.5 52.5 C 22.5 91.875 75 150 75 150 C 75 150 127.5 91.875 127.5 52.5 C 127.5 23.511719 103.988281 0 75 0 Z M 75 71.25 C 64.648438 71.25 56.25 62.851562 56.25 52.5 C 56.25 42.148438 64.648438 33.75 75 33.75 C 85.351562 33.75 93.75 42.148438 93.75 52.5 C 93.75 62.851562 85.351562 71.25 75 71.25 Z M 75 71.25 " fill-opacity="1" fill-rule="nonzero"/></g></svg>