<svg xmlns="http://www.w3.org/2000/svg" xmlns:xlink="http://www.w3.org/1999/xlink" width="200" zoomAndPan="magnify" viewBox="0 0 150 149.999998" height="200" preserveAspectRatio="xMidYMid meet" version="1.0"><path fill="#d9d9d9" d="M 75 0 C 33.582031 0 0 33.582031 0 75 C 0 116.417969 33.582031 150 75 150 C 116.417969 150 150 116.417969 150 75 C 150 33.582031 116.417969 0 75 0 Z M 117.691406 103.335938 L 106.660156 120.027344 C 106.445312 120.34375 106.1875 120.613281 105.902344 120.816406 C 98.429688 127.464844 76.660156 114.683594 57.042969 90.660156 C 38.867188 68.402344 28.238281 44.402344 32.855469 35.871094 C 32.871094 35.8125 34.746094 30.476562 54.691406 27.496094 C 55.351562 27.300781 56.027344 27.570312 56.320312 28.140625 L 66.820312 48.695312 C 67.472656 49.972656 67.316406 51.5625 66.429688 52.792969 C 66.308594 52.960938 66.183594 53.140625 66.078125 53.320312 L 61.117188 61.777344 C 60.269531 63.226562 59.707031 65.703125 60.765625 67.007812 L 79.914062 90.460938 C 81.101562 91.921875 83.816406 91.660156 85.386719 90.699219 L 93.207031 85.902344 C 93.4375 85.761719 93.640625 85.597656 93.835938 85.410156 C 94.863281 84.457031 96.394531 84.34375 97.574219 85.175781 L 116.851562 98.820312 C 118.277344 99.839844 118.652344 101.867188 117.691406 103.335938 Z M 117.691406 103.335938 " fill-opacity="1" fill-rule="nonzero"/></svg>