<svg xmlns="http://www.w3.org/2000/svg" xmlns:xlink="http://www.w3.org/1999/xlink" width="200" zoomAndPan="magnify" viewBox="0 0 150 149.999998" height="200" preserveAspectRatio="xMidYMid meet" version="1.0"><path fill="#d9d9d9" d="M 75 0 C 33.578125 0 0 33.578125 0 75 C 0 116.421875 33.578125 150 75 150 C 116.421875 150 150 116.421875 150 75 C 150 33.578125 116.421875 0 75 0 Z M 122.542969 42.773438 L 108.871094 42.773438 C 107.296875 36.179688 105.257812 30.113281 102.839844 24.75 C 107.464844 27.324219 111.757812 30.550781 115.601562 34.398438 C 118.203125 36.996094 120.519531 39.800781 122.542969 42.773438 Z M 132.421875 75 C 132.421875 80.011719 131.78125 84.925781 130.542969 89.648438 L 111.78125 89.648438 C 112.25 84.910156 112.5 80.011719 112.5 75 C 112.5 69.988281 112.25 65.089844 111.78125 60.351562 L 130.542969 60.351562 C 131.78125 65.074219 132.421875 69.988281 132.421875 75 Z M 75 132.421875 C 73.476562 132.421875 68.832031 129.425781 64.207031 120.171875 C 62.289062 116.339844 60.644531 111.96875 59.296875 107.226562 L 90.703125 107.226562 C 89.355469 111.96875 87.710938 116.339844 85.792969 120.171875 C 81.167969 129.425781 76.523438 132.421875 75 132.421875 Z M 55.902344 89.648438 C 55.359375 84.886719 55.078125 79.972656 55.078125 75 C 55.078125 70.027344 55.359375 65.113281 55.902344 60.351562 L 94.097656 60.351562 C 94.640625 65.113281 94.921875 70.027344 94.921875 75 C 94.921875 79.972656 94.640625 84.886719 94.097656 89.648438 Z M 17.578125 75 C 17.578125 69.988281 18.21875 65.074219 19.457031 60.351562 L 38.21875 60.351562 C 37.75 65.089844 37.5 69.988281 37.5 75 C 37.5 80.011719 37.75 84.910156 38.21875 89.648438 L 19.457031 89.648438 C 18.21875 84.925781 17.578125 80.011719 17.578125 75 Z M 75 17.578125 C 76.523438 17.578125 81.167969 20.574219 85.792969 29.828125 C 87.710938 33.664062 89.355469 38.03125 90.703125 42.773438 L 59.296875 42.773438 C 60.644531 38.03125 62.289062 33.664062 64.207031 29.828125 C 68.832031 20.574219 73.476562 17.578125 75 17.578125 Z M 47.160156 24.75 C 44.742188 30.113281 42.703125 36.175781 41.128906 42.773438 L 27.457031 42.773438 C 29.484375 39.800781 31.796875 36.996094 34.398438 34.398438 C 38.242188 30.550781 42.535156 27.324219 47.160156 24.75 Z M 27.457031 107.226562 L 41.128906 107.226562 C 42.703125 113.820312 44.742188 119.886719 47.160156 125.25 C 42.535156 122.675781 38.242188 119.449219 34.398438 115.601562 C 31.796875 113.003906 29.480469 110.199219 27.457031 107.226562 Z M 102.839844 125.25 C 105.257812 119.886719 107.296875 113.824219 108.871094 107.226562 L 122.542969 107.226562 C 120.515625 110.199219 118.203125 113.003906 115.601562 115.601562 C 111.757812 119.449219 107.464844 122.675781 102.839844 125.25 Z M 102.839844 125.25 " fill-opacity="1" fill-rule="nonzero"/></svg>